<?xml version="1.0" standalone="no"?>
<!DOCTYPE svg PUBLIC "-//W3C//DTD SVG 20010904//EN"
 "http://www.w3.org/TR/2001/REC-SVG-20010904/DTD/svg10.dtd">
<svg version="1.0" xmlns="http://www.w3.org/2000/svg"
 width="1080.000000pt" height="1080.000000pt" viewBox="0 0 1080.000000 1080.000000"
 preserveAspectRatio="xMidYMid meet">
<metadata>
Created by potrace 1.16, written by Peter Selinger 2001-2019
</metadata>
<g transform="translate(0.000000,1080.000000) scale(0.100000,-0.100000)"
fill="#000000" stroke="none">
<path d="M5224 8981 c-59 -15 -139 -67 -213 -141 -91 -90 -104 -106 -157 -190
-142 -225 -215 -490 -240 -867 l-7 -102 -24 36 c-13 19 -37 46 -54 61 -17 14
-36 30 -43 36 -23 22 -63 44 -102 56 -95 29 -220 -56 -311 -209 -71 -120 -67
-67 -70 -913 l-4 -767 -61 -58 c-206 -195 -321 -373 -384 -592 -43 -150 -25
-231 65 -292 34 -22 46 -24 206 -29 l169 -5 7 -33 c4 -18 16 -43 28 -56 15
-15 21 -35 21 -65 0 -44 11 -72 40 -106 18 -21 20 -35 45 -305 18 -196 33
-350 45 -465 6 -49 13 -121 16 -160 l6 -70 -128 -1 c-140 -1 -201 -14 -306
-64 -145 -70 -272 -202 -348 -362 l-32 -67 -57 -11 c-289 -57 -467 -187 -576
-423 -35 -75 -85 -254 -85 -304 0 -64 -5 -68 -96 -85 -145 -27 -232 -85 -275
-184 l-20 -44 -162 0 c-89 0 -234 -7 -322 -15 -88 -8 -163 -15 -167 -15 -11 0
-10 -28 1 -35 5 -3 103 -12 218 -20 177 -13 716 -15 3624 -15 2342 0 3450 3
3525 11 155 15 210 32 175 54 -28 17 -268 35 -466 35 l-220 0 -18 56 c-29 94
-113 167 -235 204 l-57 18 -6 98 c-9 145 -41 242 -119 358 -66 97 -203 193
-347 242 l-81 28 -7 45 c-22 145 -96 319 -183 427 -91 113 -231 203 -369 239
-151 38 -381 27 -495 -25 -59 -27 -68 -26 -63 8 5 33 18 171 45 467 32 344 34
364 53 377 23 18 47 81 47 126 0 21 5 43 11 49 6 6 16 28 24 49 l13 39 165 5
165 5 39 31 c45 36 83 105 83 151 0 55 -41 194 -86 292 -64 138 -143 250 -268
378 l-111 114 -5 782 -5 782 -40 79 c-45 90 -145 200 -210 231 -50 23 -120 24
-164 1 -30 -16 -50 -32 -126 -101 -12 -11 -31 -35 -42 -53 l-20 -32 -12 153
c-34 454 -157 780 -376 1003 -122 124 -208 165 -342 163 -49 -1 -102 -4 -119
-8z m265 -111 c34 -18 89 -62 125 -99 60 -61 106 -114 106 -123 0 -1 -174 -5
-387 -6 l-387 -4 39 49 c92 116 188 188 278 208 88 20 155 13 226 -25z m-262
-317 c-4 -3 -38 -5 -77 -4 -75 3 -110 -4 -110 -21 0 -6 34 -9 94 -6 84 3 92 1
83 -13 -13 -21 -2 -49 18 -49 21 0 31 29 17 51 -10 16 -8 18 18 14 22 -3 30 1
30 12 0 8 -6 13 -12 10 -7 -2 -22 -1 -33 4 -15 6 -11 8 18 8 l37 1 0 -197 c0
-108 -3 -194 -6 -190 -9 9 -106 -23 -139 -46 -70 -48 -184 -175 -273 -304 -11
-16 -12 -16 -6 6 4 17 3 21 -6 16 -6 -4 -9 -16 -7 -27 3 -11 -15 -62 -42 -121
-63 -135 -99 -236 -115 -327 -13 -72 -14 -66 -15 185 -1 305 13 453 63 647 34
134 60 208 98 285 18 37 25 42 45 37 19 -5 25 -2 30 15 5 20 11 21 151 21 80
0 142 -3 139 -7z m263 -1 c0 -4 -20 -6 -45 -4 -33 3 -45 0 -45 -9 0 -9 13 -14
38 -15 20 0 102 -5 180 -9 114 -6 146 -5 152 5 12 19 27 4 54 -53 59 -125 108
-298 132 -467 16 -113 30 -715 16 -670 -5 14 -17 77 -27 140 -19 122 -59 249
-87 280 -10 11 -18 25 -18 33 0 8 -22 51 -50 97 -27 46 -50 87 -50 91 0 4 -9
7 -20 6 -24 -2 -24 -1 -4 -32 9 -14 12 -25 6 -25 -5 0 -18 12 -27 28 -30 46
-170 177 -211 197 -21 10 -56 20 -79 22 l-40 5 1 167 c1 248 -6 221 64 221 33
0 60 -3 60 -8z m-19 -507 c45 -32 149 -146 204 -225 91 -129 171 -331 208
-520 20 -101 21 -145 24 -1200 3 -1088 3 -1095 -17 -1128 -33 -54 -69 -63
-255 -61 l-165 1 0 415 c0 397 -1 417 -20 448 -11 17 -36 40 -55 51 l-36 19 3
445 3 445 46 6 c268 39 416 360 272 589 -76 121 -176 181 -314 188 -178 9
-311 -72 -386 -234 -24 -51 -27 -71 -27 -154 0 -85 4 -102 31 -162 54 -117
167 -207 280 -224 l43 -6 0 -449 0 -448 -30 -16 c-66 -34 -64 -26 -70 -490
l-5 -420 -162 -3 c-185 -3 -219 5 -253 60 -20 33 -20 41 -17 1143 l3 1110 26
115 c58 259 168 470 333 636 82 84 101 95 175 103 70 8 112 0 161 -34z m-1060
-280 c54 -40 117 -115 144 -172 14 -28 25 -56 25 -61 0 -5 -105 -10 -236 -11
l-236 -2 6 28 c19 75 113 192 180 223 55 26 76 25 117 -5z m2011 -10 c69 -54
132 -140 152 -211 6 -21 4 -21 -234 -23 l-240 -2 10 25 c37 98 106 184 181
226 50 28 80 25 131 -15z m-1824 -562 l-3 -256 -252 -5 -253 -4 0 261 0 261
255 0 255 0 -2 -257z m1862 247 c-12 -7 -8 -10 15 -10 23 0 27 3 15 10 -11 7
1 10 41 10 50 0 57 -3 63 -22 3 -13 5 -128 3 -257 l-2 -234 -253 -5 -252 -4 0
261 0 261 193 0 c127 0 187 -4 177 -10z m-1860 -606 c0 -37 -8 -58 -35 -99
-19 -29 -64 -115 -101 -191 -37 -76 -78 -155 -91 -176 l-24 -36 -130 -1 -129
-2 0 276 0 275 255 0 255 0 0 -46z m1999 -206 c-1 -139 -4 -263 -7 -276 -4
-22 -8 -23 -76 -20 -50 2 -70 7 -68 16 1 9 -17 12 -67 12 -82 0 -68 -16 -181
210 -40 80 -81 157 -92 172 -12 18 -18 44 -18 82 l0 56 256 0 256 0 -3 -252z
m-1922 10 c-8 -147 -37 -391 -48 -402 -5 -6 -9 -20 -9 -32 0 -11 -12 -66 -26
-120 -14 -54 -29 -115 -33 -134 -4 -19 -12 -44 -18 -55 -15 -27 -53 -113 -53
-120 0 -11 -92 -191 -106 -206 -8 -8 -14 -24 -14 -33 0 -10 -9 -20 -21 -23
-16 -4 -17 -8 -7 -14 7 -5 -103 -10 -252 -11 l-265 -2 255 -6 255 -6 -265 -2
c-146 -1 -289 -5 -317 -8 -31 -4 -53 -3 -53 3 0 15 79 142 126 204 61 80 188
207 264 265 83 63 118 94 197 176 102 105 158 189 253 383 91 183 125 245 136
245 4 0 4 -46 1 -102z m1483 -203 c22 -47 51 -104 66 -126 15 -24 23 -48 19
-59 -3 -10 0 -22 6 -26 9 -5 10 -2 6 9 -9 23 10 21 23 -2 5 -11 16 -26 22 -33
62 -68 63 -69 48 -79 -12 -9 -12 -10 3 -5 13 4 38 -14 90 -66 40 -39 83 -78
97 -86 57 -36 100 -74 94 -84 -4 -6 -3 -8 3 -5 11 7 163 -133 163 -150 0 -5
10 -18 21 -29 26 -23 119 -159 119 -174 0 -5 -7 -10 -16 -10 -8 0 -12 4 -9 10
3 5 0 7 -9 4 -9 -3 -17 3 -21 16 -4 12 -19 36 -33 53 -37 43 -54 76 -47 87 3
6 0 7 -8 4 -8 -3 -27 9 -43 27 -85 94 -211 208 -244 221 -10 4 -22 13 -27 20
-4 8 -25 27 -45 42 -21 16 -38 32 -38 37 0 12 -33 45 -59 59 -12 6 -21 15 -21
21 0 5 -16 26 -35 46 -19 20 -35 40 -35 44 0 4 -12 21 -26 38 -14 17 -21 31
-15 31 6 0 11 5 11 10 0 6 -7 10 -16 8 -12 -2 -22 13 -37 52 -12 30 -25 58
-31 62 -5 3 -11 21 -12 38 -1 17 -5 42 -8 55 -12 47 4 25 44 -60z m-1852 -164
c-6 -18 -138 -159 -178 -191 l-40 -32 0 116 0 116 111 0 c64 0 109 -4 107 -9z
m2284 -106 c-2 -60 -5 -111 -5 -112 -8 -7 -207 199 -207 215 0 4 48 7 108 7
l107 0 -3 -110z m-1229 -391 c3 -4 -4 -15 -17 -25 -24 -19 -41 -59 -25 -59 5
0 9 6 9 14 0 7 7 19 15 26 12 10 14 -42 15 -412 0 -232 1 -430 2 -438 4 -57
-3 -80 -24 -81 -22 0 -22 -1 -3 -9 19 -8 19 -8 1 -16 -14 -5 -25 0 -43 20
l-23 27 0 455 0 455 25 24 c23 24 54 32 68 19z m-684 -370 c2 -2 2 -6 0 -8 -2
-2 -211 -7 -464 -11 -445 -7 -461 -8 -482 -28 -13 -11 -23 -28 -23 -36 1 -14
2 -14 13 0 9 12 16 14 29 5 13 -8 22 -6 37 8 11 10 18 23 15 27 -3 5 94 9 216
9 l221 0 -44 -42 c-24 -24 -51 -47 -59 -53 -9 -5 -36 -23 -59 -40 -24 -16 -55
-35 -69 -42 -104 -48 -126 -56 -150 -57 -16 -1 -26 -5 -23 -10 3 -4 -9 -5 -26
-1 -25 5 -35 3 -45 -10 -10 -14 -21 -15 -59 -10 -58 9 -87 41 -87 94 0 41 22
132 45 186 l14 36 498 -7 c274 -3 500 -8 502 -10z m2333 -34 c5 -19 13 -44 18
-55 16 -36 28 -118 21 -139 -7 -17 -9 -15 -15 16 -11 59 -47 162 -60 170 -8 6
-8 8 2 8 6 0 12 5 12 10 0 6 -152 10 -432 11 -238 1 -462 5 -498 9 -36 4 162
7 439 6 l505 -1 8 -35z m-2432 -369 l85 -8 -75 -3 -75 -3 65 -7 65 -6 -75 -5
c-120 -9 -453 -8 -477 2 -13 4 -23 15 -23 24 0 13 28 15 213 14 116 -1 250 -4
297 -8z m1897 -5 c4 -3 -6 -6 -20 -6 -15 0 -27 -4 -27 -10 0 -6 31 -10 74 -10
65 0 75 3 89 23 12 17 16 18 16 6 2 -37 -19 -40 -318 -39 -175 1 -293 5 -297
11 -3 6 -3 17 0 26 6 14 33 15 242 10 129 -3 238 -8 241 -11z m-520 -138 c5
-56 12 -75 39 -107 27 -33 29 -42 64 -416 6 -60 17 -177 25 -259 19 -188 19
-232 3 -218 -24 19 -145 42 -219 42 -44 0 -108 -9 -153 -20 -43 -12 -80 -20
-81 -18 -2 2 6 64 16 138 21 143 34 238 49 360 16 121 17 125 55 139 80 29
117 142 81 247 -20 60 -20 84 -1 84 24 0 78 30 94 52 16 24 23 18 28 -24z
m-1539 22 c104 0 100 4 70 -72 l-10 -28 -152 0 c-170 0 -182 4 -195 62 -11 45
-2 48 114 42 44 -2 122 -4 173 -4z m1898 0 l102 0 -8 -34 c-4 -18 -10 -38 -14
-44 -4 -7 11 -12 41 -15 59 -4 -176 -13 -272 -9 -79 2 -108 14 -124 49 -25 54
-6 64 109 57 36 -2 111 -4 166 -4z m-1556 -8 c0 -10 65 -42 85 -42 19 0 19 -5
-6 -96 -13 -47 -18 -89 -15 -109 9 -48 59 -111 100 -126 20 -7 36 -16 36 -20
0 -3 20 -149 45 -323 25 -175 45 -321 45 -326 0 -4 -64 -10 -142 -12 -127 -4
-154 -9 -236 -36 -108 -37 -103 -36 -97 -19 2 6 11 89 20 182 9 94 20 211 25
260 5 50 14 144 20 210 23 256 30 298 55 325 29 30 45 71 45 111 0 16 5 29 10
29 6 0 10 -4 10 -8z m381 -48 c64 -6 66 -8 78 -40 18 -51 64 -78 125 -76 97 3
115 6 110 13 -2 5 -12 5 -22 2 -12 -5 -9 3 11 26 15 18 27 41 27 52 0 18 8 19
125 19 l124 0 11 -42 c6 -24 15 -53 20 -66 19 -44 12 -91 -16 -117 l-27 -25
-372 0 c-342 0 -373 1 -387 18 -36 41 -38 55 -14 143 22 82 24 84 57 90 49 9
76 10 150 3z m-565 -222 c-3 -53 -11 -133 -17 -177 -5 -44 -11 -90 -12 -102
-1 -12 -6 -25 -11 -30 -4 -4 -5 12 -2 37 3 25 6 69 6 98 -1 30 3 52 9 52 6 0
11 18 11 40 0 37 -2 40 -29 40 -23 0 -30 -5 -34 -27 -3 -15 -1 -36 5 -46 5
-10 7 -32 5 -50 -4 -31 -4 -31 -5 6 -1 23 -7 37 -15 37 -11 0 -13 19 -11 83
l3 82 -9 -70 c-4 -38 -25 -252 -45 -475 -21 -223 -38 -406 -39 -407 0 -1 -23
4 -51 11 l-50 13 -11 94 c-6 52 -16 148 -23 214 -6 66 -20 208 -31 315 -10
107 -22 232 -26 278 l-7 83 198 -1 198 -2 -7 -96z m1921 50 c-4 -26 -9 -87
-13 -135 -5 -63 -10 -85 -18 -77 -5 5 -10 35 -10 65 0 30 -4 55 -8 55 -4 0 -8
-10 -8 -22 0 -13 -4 -29 -9 -37 -7 -11 -11 -8 -17 10 -8 21 -10 17 -15 -26 -6
-45 -7 -42 -6 22 1 39 -2 75 -6 79 -4 4 -7 -8 -7 -27 0 -19 -7 -97 -15 -174
-32 -309 -60 -622 -56 -647 1 -10 0 -18 -4 -18 -12 0 -110 83 -116 99 -4 9
-12 77 -18 151 -18 197 -49 522 -61 621 -5 47 -10 91 -10 98 0 9 49 11 201 11
l201 -2 -5 -46z m-863 -185 c-2 -7 -11 -57 -19 -112 -13 -92 -14 -94 -10 -27
l5 74 -65 -4 c-52 -3 -64 -1 -62 11 1 7 -3 16 -9 18 -11 4 -28 -87 -44 -232
-5 -49 -14 -126 -20 -170 -6 -44 -15 -114 -20 -155 -5 -41 -16 -136 -26 -210
-9 -74 -17 -147 -17 -162 0 -27 -1 -28 -61 -28 -34 0 -71 -3 -83 -6 -19 -5
-23 -1 -27 28 -15 89 -36 235 -51 348 -30 231 -85 615 -90 628 -3 9 61 12 300
12 243 0 303 -3 299 -13z m1381 -632 c240 -51 425 -245 495 -521 28 -108 26
-129 -14 -176 -42 -49 -66 -97 -72 -146 l-5 -37 14 30 c16 35 97 112 131 125
72 27 280 -77 385 -193 96 -106 122 -179 130 -367 l6 -145 50 -9 c64 -11 148
-43 182 -69 25 -20 83 -103 83 -119 0 -4 -296 -8 -657 -8 l-658 1 -47 72
c-132 203 -360 376 -576 436 -60 16 -159 30 -256 35 -17 1 -23 14 -37 86 -60
297 -229 497 -497 589 -34 11 -72 21 -83 21 -17 0 -20 5 -16 23 3 12 13 81 22
152 9 72 20 133 23 136 16 15 162 58 213 64 119 13 274 -44 370 -135 l48 -45
-15 -70 c-17 -75 -12 -148 11 -200 13 -29 13 -28 14 35 1 90 14 125 71 202 82
111 216 200 347 232 77 19 251 19 338 1z m-1953 -114 c7 -6 38 -214 38 -254 0
-18 -12 -26 -67 -46 -231 -83 -439 -309 -513 -558 -13 -41 -15 -43 -69 -53
-128 -25 -305 -98 -417 -171 -133 -88 -256 -224 -320 -354 l-37 -75 -649 0
c-483 0 -648 3 -648 12 0 22 79 86 127 102 26 9 86 21 132 27 47 5 91 15 98
21 7 6 13 31 13 57 0 48 21 178 40 246 22 77 93 205 148 265 81 91 173 149
287 183 101 31 156 39 209 33 72 -9 183 -64 224 -110 45 -52 40 -23 -7 38 -41
53 -77 84 -142 120 l-38 22 31 59 c87 171 203 280 363 341 62 24 85 27 195 28
129 1 181 -8 301 -53 94 -36 177 -124 180 -193 1 -22 1 -22 8 2 11 36 3 98
-20 141 -10 21 -19 43 -19 48 0 31 217 117 330 131 67 8 210 2 222 -9z m469
-356 c223 -39 379 -149 479 -337 35 -65 55 -128 75 -231 l13 -70 -34 -36 c-41
-43 -81 -121 -89 -176 l-6 -40 20 36 c27 49 89 112 131 134 29 15 49 17 130
11 52 -4 113 -11 135 -17 74 -18 175 -53 175 -61 0 -5 6 -8 13 -8 7 0 49 -22
92 -49 95 -59 215 -172 273 -259 l43 -62 -819 0 -818 0 -13 50 c-18 71 -75
138 -147 175 -51 26 -70 30 -139 30 -91 -1 -147 -21 -210 -76 -40 -35 -85
-118 -85 -156 l0 -23 -486 -2 c-267 -2 -488 0 -491 5 -2 4 17 43 44 87 49 83
124 169 203 231 160 127 446 232 586 215 73 -8 156 -42 204 -83 58 -50 49 -24
-15 41 -36 36 -79 67 -125 88 -68 32 -70 34 -64 63 10 48 99 215 149 277 88
113 247 212 385 242 87 19 288 19 391 1z m-413 -980 c78 -24 139 -84 156 -157
l6 -28 -235 0 c-260 0 -249 -3 -221 64 23 56 92 110 161 127 48 11 78 10 133
-6z"/>
<path d="M4236 7349 c-32 -25 -35 -73 -6 -107 19 -23 25 -24 124 -20 57 1 108
6 111 10 4 4 10 27 12 51 5 39 2 46 -22 65 -23 19 -41 22 -110 22 -68 0 -87
-4 -109 -21z"/>
<path d="M6236 7349 c-32 -25 -35 -73 -7 -106 18 -21 28 -23 115 -23 83 0 99
3 116 20 28 28 26 75 -5 105 -22 23 -32 25 -108 25 -70 0 -89 -3 -111 -21z"/>
<path d="M5556 4768 c17 -48 34 -148 25 -148 -4 0 -12 -9 -19 -21 -13 -20 -12
-21 64 -17 70 3 79 5 97 30 l21 28 -20 82 -20 83 -81 3 -82 3 15 -43z"/>
<path d="M7341 2708 c-69 -46 -91 -128 -35 -128 15 0 24 6 24 16 0 8 13 29 29
45 38 37 82 39 116 4 21 -20 25 -34 25 -80 0 -55 0 -56 27 -53 62 7 48 142
-19 190 -47 33 -124 36 -167 6z"/>
<path d="M4075 3351 c-44 -15 -75 -35 -80 -53 -4 -10 -10 -18 -14 -18 -5 0
-11 -19 -15 -41 -12 -75 27 -141 62 -105 12 11 12 21 3 46 -9 26 -8 39 5 66
28 58 119 58 146 -1 7 -16 19 -25 35 -25 19 0 23 5 23 29 0 36 -50 87 -99 101
-40 11 -38 11 -66 1z"/>
<path d="M7287 8003 c-12 -11 -7 -44 10 -74 15 -25 16 -33 4 -62 -36 -88 -20
-111 57 -77 41 18 47 19 68 5 33 -22 71 -26 85 -9 10 12 8 24 -9 59 l-21 44
20 46 c33 75 8 95 -70 56 -37 -19 -38 -19 -67 0 -29 19 -65 25 -77 12z"/>
<path d="M2579 7211 c-64 -65 -20 -171 71 -171 33 0 48 6 71 29 64 65 20 171
-71 171 -33 0 -48 -6 -71 -29z"/>
<path d="M8010 6884 c-313 -60 -538 -344 -516 -650 21 -285 224 -522 494 -574
84 -17 250 -8 324 17 182 63 334 220 398 413 32 96 33 259 1 355 -66 201 -199
340 -391 410 -61 22 -95 28 -180 31 -58 1 -116 0 -130 -2z m220 -68 c69 -15
190 -67 209 -90 9 -11 0 -17 -46 -30 -32 -10 -85 -26 -118 -36 -33 -10 -109
-33 -170 -50 -125 -36 -155 -59 -155 -116 0 -21 7 -43 18 -52 9 -10 13 -14 8
-9 -14 10 -26 9 -26 -3 0 -5 14 -17 32 -26 25 -13 38 -14 62 -6 17 6 48 14 69
18 43 7 59 24 25 25 -22 0 -22 1 -3 8 11 5 23 4 26 -1 3 -5 10 -8 15 -7 22 4
21 -3 -1 -26 -32 -31 -37 -121 -7 -132 9 -4 20 -11 23 -16 4 -5 35 0 73 11 36
11 66 17 66 14 0 -4 4 -2 8 4 4 6 18 15 32 19 23 7 23 7 7 -9 -18 -18 -19 -25
-21 -88 -1 -31 3 -38 18 -38 12 0 16 -5 12 -15 -3 -8 0 -16 7 -16 7 -1 18 -2
26 -3 27 -2 22 -23 -16 -68 -53 -63 -99 -101 -172 -143 -35 -19 -65 -35 -67
-35 -2 0 -4 16 -4 35 0 19 -4 35 -10 35 -5 0 -10 7 -10 16 0 8 -4 12 -10 9 -5
-3 -10 -1 -10 5 0 5 -15 19 -32 30 -27 17 -43 19 -85 14 -38 -4 -53 -3 -53 5
0 7 4 9 10 6 14 -9 80 5 80 17 0 6 -9 8 -20 5 -11 -3 -20 -2 -20 2 0 13 77 28
100 19 28 -10 45 -1 30 17 -8 10 -8 15 1 20 6 4 15 1 20 -6 6 -11 9 -10 15 4
11 29 -4 61 -39 85 -41 27 -58 27 -139 2 -56 -18 -116 -28 -80 -13 22 9 33 52
21 76 -21 40 -62 66 -103 67 -22 0 -88 -16 -148 -35 -60 -20 -113 -33 -117
-30 -16 9 23 174 54 236 119 228 367 347 615 295z m282 -161 c6 -14 15 -25 19
-25 9 0 64 -83 93 -140 36 -69 58 -180 36 -180 -5 0 -10 20 -10 45 0 25 -5 45
-10 45 -6 0 -8 12 -5 28 4 18 3 21 -3 9 -7 -17 -10 -16 -32 8 -13 14 -18 25
-12 25 7 0 12 -4 12 -10 0 -5 5 -10 11 -10 12 0 2 40 -14 55 -7 7 -8 4 -3 -9
4 -13 2 -17 -8 -13 -8 3 -16 3 -18 -1 -6 -15 -73 -50 -108 -57 -19 -4 -39 -11
-45 -15 -16 -12 -95 -29 -89 -19 3 5 1 9 -5 9 -5 0 -13 -4 -16 -10 -3 -5 -19
-10 -35 -10 -17 0 -33 -7 -38 -17 -6 -10 -16 -14 -27 -10 -34 14 -7 33 93 65
89 29 103 37 108 59 16 63 -34 112 -87 86 -18 -9 -41 -12 -57 -9 -17 4 -22 3
-14 -2 17 -11 -73 -36 -90 -26 -7 4 -8 3 -4 -4 5 -8 -1 -12 -16 -13 -45 -1
-68 -6 -75 -14 -5 -4 0 -5 10 -2 12 4 16 3 11 -4 -3 -6 -17 -9 -30 -6 -13 2
-24 0 -24 -4 0 -5 -7 -6 -15 -3 -8 4 -15 18 -15 33 0 27 5 29 113 60 61 18
168 50 237 72 69 21 131 38 138 39 7 0 18 -11 24 -25z m-668 -351 c23 -23 20
-34 -11 -35 -24 0 -25 -1 -8 -8 16 -7 13 -9 -18 -15 -20 -4 -42 -4 -47 -1 -6
3 -10 1 -10 -6 0 -7 -3 -9 -7 -6 -11 11 -53 -35 -53 -58 0 -30 28 -65 52 -65
21 0 191 48 263 74 59 22 85 20 85 -5 0 -12 -4 -17 -11 -14 -15 10 -61 -4 -53
-16 4 -6 -1 -9 -12 -8 -11 2 -40 -7 -66 -18 -44 -20 -48 -25 -48 -57 0 -23 7
-43 20 -56 23 -23 31 -24 82 -10 41 12 78 0 78 -25 0 -20 -51 -57 -72 -52 -10
3 -18 2 -18 -1 0 -14 -160 -45 -204 -40 -35 4 -43 2 -39 -8 10 -28 -15 -13
-55 32 -72 82 -132 217 -132 300 0 30 2 31 93 58 74 22 163 51 174 55 1 1 9
-6 17 -15z m790 -231 c-54 -135 -136 -228 -261 -295 -91 -49 -230 -75 -318
-59 l-50 9 70 1 c39 1 90 6 115 12 57 12 130 42 130 52 0 4 6 7 14 7 25 0 129
76 166 121 19 23 40 47 46 53 21 22 77 142 101 216 7 23 8 22 11 -12 2 -23 -7
-62 -24 -105z"/>
<path d="M2301 5339 c-29 -5 -91 -27 -138 -49 -96 -45 -198 -134 -244 -215
l-29 -50 -92 0 c-79 0 -99 -3 -129 -22 -41 -26 -59 -59 -59 -109 0 -30 10 -45
68 -103 37 -37 90 -82 118 -99 44 -28 53 -39 73 -95 58 -164 169 -275 356
-353 61 -25 234 -30 314 -9 66 17 175 67 186 85 4 6 52 10 117 10 126 0 213
19 253 56 19 18 25 33 25 67 0 54 -45 119 -115 165 l-46 30 -3 134 c-2 118 -5
141 -29 202 -74 187 -242 324 -439 356 -73 11 -112 11 -187 -1z m224 -75 c139
-36 258 -135 321 -269 20 -41 34 -80 31 -87 -3 -7 -8 2 -12 20 -4 17 -11 32
-16 32 -5 0 -9 7 -9 15 0 30 -17 14 -18 -17 -1 -53 -23 -130 -56 -198 -34 -72
-149 -196 -204 -221 -17 -7 -32 -17 -32 -21 0 -15 -40 -8 -136 23 -200 64
-463 171 -472 192 -2 4 -8 5 -13 1 -14 -8 -11 114 5 172 34 127 143 265 252
318 113 56 244 70 359 40z m-671 -346 c-8 -29 -14 -69 -14 -90 0 -20 -4 -39
-9 -42 -5 -3 -32 15 -60 40 -50 45 -63 79 -43 111 12 18 52 32 98 32 l41 1
-13 -52z"/>
<path d="M2561 5111 c-35 -9 -65 -53 -57 -85 21 -83 138 -88 159 -7 13 52 -47
105 -102 92z"/>
<path d="M2154 5026 c-28 -28 -34 -42 -34 -75 0 -33 6 -47 35 -76 30 -29 43
-35 78 -35 49 0 81 19 102 60 25 49 19 88 -19 126 -29 29 -41 34 -81 34 -40 0
-52 -5 -81 -34z"/>
<path d="M2478 4804 c-81 -43 -52 -154 41 -154 92 0 113 127 27 160 -34 13
-35 12 -68 -6z"/>
<path d="M1802 3738 c-6 -13 -12 -30 -15 -38 -2 -8 -21 -24 -43 -35 -50 -26
-53 -55 -5 -69 26 -7 37 -19 52 -53 10 -24 25 -43 33 -43 8 0 24 19 34 43 15
34 27 45 53 53 51 14 51 47 2 67 -29 11 -43 25 -56 56 -21 46 -38 52 -55 19z"/>
<path d="M8580 3163 c-41 -52 -3 -123 64 -123 41 0 76 35 76 76 0 70 -97 102
-140 47z"/>
</g>
</svg>
